{"title":"Dead Genesis (BRRip) 2010 TiCTaC.","uid":6856954,"size":1143424708,"categoryP":"video","categoryS":"movies","magnet":"?xt=urn:btih:b4970fbc7825392ed4a4325cbeb5bd367a8fc21e&amp;dn=Dead+Genesis+%28BRRip%29+2010+TiCTaC.&amp;tr=udp%3A%2F%2Ftracker.openbittorrent.com%3A80&amp;tr=udp%3A%2F%2Fopen.demonii.com%3A1337&amp;tr=udp%3A%2F%2Ftracker.coppersurfer.tk%3A6969&amp;tr=udp%3A%2F%2Fexodus.desync.com%3A6969","seeders":0,"leechers":0,"uploader":"moviesp2p","files":1,"time":1322698161,"description":"[imgw=http://i.imgur.com/1R0e4.jpg]\n\nIMDB; http://www.imdb.com/title/tt1650516/\n\nPLOT\n\nSeven months have passed since the dead took over. Many cities and states \nhave been abandoned and left to die. Several self sufficient hunting \ngroups have been established to take on the threat in a war aptly \nreferred to as the 'War on Dead'. Jillian Hurst, a former news writer and \namateur documentarian, has set out to make a pro-war propaganda film to \nsupport the W.O.D. She joins up with a pack of renegade hunters known \ninfamously to North America as 'the deadheads'. The moral dynamics and \nhardships of fighting in a war against the undead are told from several \ndifferent perspectives.\n\nFILE DETAILS\n\nDead Genesis (2010)\n98 min  -  Drama | Horror | Thriller\nCast overview, first billed only:\nEmily Alatalo Emily Alatalo ... \nJillian Hurst\nLionel Boodlal Lionel Boodlal ... \nFynn\nColin Paradine Colin Paradine ... \nKorvin\nErin Stuart Erin Stuart ... \nCricket\nTom Parkinson Tom Parkinson ... \nConnor\nAlex Mallari Jr. Alex Mallari Jr. ... \nMickey\nPaige Albrecht Paige Albrecht ... \nSofia\nRyan Barrett Ryan Barrett ... \nDanny\nChristopher Lee Grant Christopher Lee Grant ... \nRafe\nJonathan Steen Jonathan Steen ... \nFelix\nJoe Santos Joe Santos ... \nJason\nNathan Hawkins Nathan Hawkins ... \nNavin\nJohn Cross John Cross ... \nPsycho\nCarlo Adamo Carlo Adamo ... \nProf. Leon Albright\nDeanne Goulet McCallum Deanne Goulet McCallum ... \n\nGenres:\nDrama | Horror | Thriller\nCountry: Canada\nLanguage: English\nRuntime: 98 min\nColor: Color \n\nGeneral\n\nComplete name                    : G:\\TORRENTS\\Dead Genesis (BRRip) 2010 TiCTaC\\Dead Genesis (BRRip) 2010 TiCTaC.avi\nFormat                           : AVI\nFormat/Info                      : Audio Video Interleave\nFile size                        : 1.06 GiB\nDuration                         : 1h 30mn\nOverall bit rate                 : 1 692 Kbps\nWriting application              : Lavf52.13.0\nWriting library                  : VirtualDub build 32842/release\n\nVideo\nID                               : 0\nFormat                           : MPEG-4 Visual\nFormat profile                   : Simple@L1\nFormat settings, BVOP            : No\nFormat settings, QPel            : No\nFormat settings, GMC             : No warppoints\nFormat settings, Matrix          : Default (H.263)\nCodec ID                         : XVID\nCodec ID/Hint                    : XviD\nDuration                         : 1h 30mn\nBit rate                         : 1 487 Kbps\nWidth                            : 720 pixels\nHeight                           : 432 pixels\nDisplay aspect ratio             : 16:9\nFrame rate                       : 25.000 fps\nColor space                      : YUV\nChroma subsampling               : 4:2:0\nBit depth                        : 8 bits\nScan type                        : Progressive\nCompression mode                 : Lossy\nBits/(Pixel*Frame)               : 0.191\nStream size                      : 959 MiB (88%)\nWriting library                  : Lavc51.54.0\n\nAudio\nID                               : 1\nFormat                           : MPEG Audio\nFormat version                   : Version 1\nFormat profile                   : Layer 3\nMode                             : Joint stereo\nMode extension                   : MS Stereo\nCodec ID                         : 55\nCodec ID/Hint                    : MP3\nDuration                         : 1h 30mn\nBit rate mode                    : Constant\nBit rate                         : 192 Kbps\nChannel(s)                       : 2 channels\nSampling rate                    : 44.1 KHz\nCompression mode                 : Lossy\nStream size                      : 124 MiB (11%)\nAlignment                        : Aligned on interleaves\nInterleave, duration             : 26 ms (0.65 video frame)\nInterleave, preload duration     : 522 ms\nWriting library                  : LAME3.98 (beta)\n\n[imgw=http://i.imgur.com/SYZdG.jpg]\n[imgw=http://i.imgur.com/GgVDp.jpg]\n[imgw=http://i.imgur.com/3ioLu.jpg]\n\n[img]http://i.imgur.com/hvsFS.jpg[/img]","torrent":{"xt":"urn:btih:b4970fbc7825392ed4a4325cbeb5bd367a8fc21e","amp;dn":"Dead+Genesis+%28BRRip%29+2010+TiCTaC.","amp;tr":["udp%3A%2F%2Ftracker.openbittorrent.com%3A80","udp%3A%2F%2Fopen.demonii.com%3A1337","udp%3A%2F%2Ftracker.coppersurfer.tk%3A6969","udp%3A%2F%2Fexodus.desync.com%3A6969"],"infoHash":"b4970fbc7825392ed4a4325cbeb5bd367a8fc21e","infoHashBuffer":{"type":"Buffer","data":[180,151,15,188,120,37,57,46,212,164,50,92,190,181,189,54,122,143,194,30]},"announce":[],"urlList":[]}}